<svg version="1.1" xmlns="http://www.w3.org/2000/svg" viewBox="0 0 464.26206997552526 373.5906205504134" width="928.5241399510505" height="747.1812411008268">

    <rect x="0" y="0" width="464.26206997552526" height="373.5906205504134" fill="#ffffff"></rect><g stroke-linecap="round" transform="translate(10 10) rotate(0 222.13103498776263 176.7953102752067)"><path d="M-1.76 1.54 L444 -1.03 L444.68 353.15 L-1.89 353.83" stroke="none" stroke-width="0" fill="#a5d8ff"></path><path d="M-0.2 0.52 C163.09 -0.97, 326.6 -0.38, 444.48 -0.26 M0.01 -0.45 C144.77 -0.4, 288.57 0.16, 444.71 0.24 M444.15 0.6 C445.14 105.93, 445.4 208.97, 445.48 353.5 M443.96 -0.63 C445.6 140.49, 445.92 280.5, 443.73 354.07 M445.24 354.03 C352.11 355.89, 259.79 354.61, 0.75 354.11 M443.84 353.2 C291.71 353.55, 140.31 353.09, -0.05 354 M-1.02 353.32 C0.21 263.82, -0.7 175.65, 0.59 0.01 M0.04 353.71 C0.78 220.85, 1.55 88.13, -0.39 -0.52" stroke="#1e1e1e" stroke-width="1" fill="none"></path></g><g transform="translate(24.056877881645505 22.594106325432904) rotate(0 70.3125 9.600000000000023)"><text x="0" y="0" font-family="Arial, Segoe UI Emoji" font-size="16px" fill="#1e1e1e" text-anchor="start" style="white-space: pre;" direction="ltr" dominant-baseline="text-before-edge">/app/layout.tsx</text></g><g stroke-linecap="round" transform="translate(17.32405131106998 52.53250396023418) rotate(0 213.74303398206393 145.1367544514809)"><path d="M-1.25 0.37 L425.61 1.18 L427.27 288.46 L1.18 291.92" stroke="none" stroke-width="0" fill="#b2f2bb"></path><path d="M-0.26 0.21 C107.74 -0.19, 214.25 -0.32, 426.96 -0.42 M-0.06 -0.12 C154.12 -0.49, 307.05 -0.18, 428.01 0.26 M427.24 0.52 C425.35 109.33, 425.65 218.75, 428.28 290.68 M426.82 0.72 C426.71 58.93, 426.46 116.92, 427.56 290.26 M428.46 290 C305.54 290.79, 184.44 291.03, -0.89 289.6 M427.81 290.01 C329.19 290.03, 230.18 290.18, -0.21 290.34 M0.07 289.47 C0.62 205.07, 0.29 121.92, 1.3 -0.42 M0.09 289.93 C1.54 194.31, 1.42 99.96, -0.14 0.71" stroke="#1e1e1e" stroke-width="1" fill="none"></path></g><g transform="translate(27.792806629740426 63.322355474172355) rotate(0 98.4375 9.600000000000023)"><text x="0" y="0" font-family="Arial, Segoe UI Emoji" font-size="16px" fill="#1e1e1e" text-anchor="start" style="white-space: pre;" direction="ltr" dominant-baseline="text-before-edge">/app/tasks/layout.tsx</text></g><g stroke-linecap="round" transform="translate(32.50986264114954 99.54251597667803) rotate(0 195.65971174708397 113.92161718312241)"><path d="M-1.31 -0.33 L392.85 -1.9 L391.58 227.92 L1.43 228.57" stroke="none" stroke-width="0" fill="#ffc9c9"></path><path d="M-0.19 -0.83 C88.35 0.51, 178.55 -0.27, 392.18 -0.44 M-0.16 -0.12 C135.35 -1.71, 270.61 -1.4, 391.69 0.44 M390.15 -0.42 C389.79 62.88, 390 129.2, 391.68 228.87 M391.48 -0.18 C390.75 52.11, 391.04 104.41, 391.13 228.44 M390.62 227.43 C266.33 225.76, 139.99 225.46, -0.38 228.26 M390.99 228.04 C300.69 225.48, 209 226.42, -0.02 227.47 M-1.03 229.14 C-0.58 152.23, 1.49 76.29, 1.63 0.79 M-0.13 227.79 C-1.64 165.99, -1.15 103.85, 0.23 -0.83" stroke="#1e1e1e" stroke-width="1" fill="none"></path></g><g stroke-linecap="round" transform="translate(48.3811888642972 155.18135114526876) rotate(0 180.69178712093435 14.600000000000023)"><path d="M0.33 0.3 L363.02 1.64 L362.4 29.67 L-1.67 29.48" stroke="none" stroke-width="0" fill="#ffec99"></path><path d="M0.64 0.82 C99.92 -0.3, 199.9 0.82, 361.83 -1.15 M0.03 -0.37 C107.31 1.66, 215.75 1.3, 361.02 -0.37 M362.56 0.73 C361.81 10.23, 360.42 15.3, 362.92 28.68 M362.18 0.88 C360.39 9.07, 360.33 18.04, 361.27 29.75 M360.95 29.11 C252.88 31.73, 146.88 30.17, 1.18 30.14 M361.48 29.11 C255.95 30.66, 150.58 30.59, -0.28 29.2 M0.7 29.27 C-0.46 22.97, -0.66 16.47, -0.96 1.56 M0.63 28.54 C0.37 18.99, 0.65 9.58, 0.53 0.46" stroke="#1e1e1e" stroke-width="1" fill="none"></path></g><g transform="translate(200.94797598523155 160.18135114526876) rotate(0 28.125 9.600000000000023)"><text x="28.125" y="0" font-family="Arial, Segoe UI Emoji" font-size="16px" fill="#1e1e1e" text-anchor="middle" style="white-space: pre;" direction="ltr" dominant-baseline="text-before-edge">Task 1</text></g><g stroke-linecap="round" transform="translate(48.20662466290241 196.50560515409666) rotate(0 180.69178712093435 14.600000000000023)"><path d="M1.94 1.75 L359.73 -1.96 L361.44 27.32 L1.39 29.43" stroke="none" stroke-width="0" fill="#ffec99"></path><path d="M0.31 -0.78 C137.76 -0.25, 277.65 1.24, 361.73 -0.12 M0.6 0.07 C99.31 -1.5, 199.88 -2.1, 360.86 0.51 M363.22 0.3 C360.1 8.02, 360.95 16.71, 361.95 27.51 M361.05 0.56 C360.33 9.37, 362.05 19.69, 361.42 29.78 M360.23 28.21 C262.84 29.83, 163.66 30.07, -0.28 30.03 M360.95 28.91 C229.57 30.14, 97.72 29.77, -0.28 28.81 M-1.09 30.57 C1.12 19.17, 1.57 7.89, 1.73 -1.22 M0.45 29.9 C0.61 19.64, -0.21 11.59, 0.09 -0.45" stroke="#1e1e1e" stroke-width="1" fill="none"></path></g><g transform="translate(200.77341178383676 201.50560515409666) rotate(0 28.125 9.600000000000023)"><text x="28.125" y="0" font-family="Arial, Segoe UI Emoji" font-size="16px" fill="#1e1e1e" text-anchor="middle" style="white-space: pre;" direction="ltr" dominant-baseline="text-before-edge">Task 2</text></g><g transform="translate(42.49074781096351 110.03651200582317) rotate(0 89.0625 9.600000000000023)"><text x="0" y="0" font-family="Arial, Segoe UI Emoji" font-size="16px" fill="#1e1e1e" text-anchor="start" style="white-space: pre;" direction="ltr" dominant-baseline="text-before-edge">/app/tasks/page.tsx</text></g></svg>